<svg viewBox="0 0 584.31 293.59" xmlns="http://www.w3.org/2000/svg" role="img" aria-label="Coastal Kitchens NC">
    <title>Coastal Kitchens NC</title>
    <g>
        <path d="M18.39 190.2c11.07-9.53 79.04-26.5 151.26-24.36 60.27 1.78 141.89 9.09 192.21 7.67 24.51-.69 70.25-7.31 65.88-23.98-2.41-9.22-27.19-1.16-27.19-1.16s27.68-25.05 49.33-9.14c9.28 6.82 6.55 16.79-1.01 23.23-8.75 7.45-23.36 10.88-23.36 10.88s58.11-2.41 95.21-26.57c30.98-20.17 44.38-42.74 39.23-64.37-5.15-21.63-40.47-6.24-40.47-6.24s1.65-19.26 25.85-30.85c6.6-3.16 13.4-3.51 19.92-2.17V16.55H16.57v174.93l1.82-1.27Z" fill="#00a1ab"/>
        <path d="M562.4 167.29c-65.91 46.08-209.83 30.89-343.45 16.73-126.75-13.43-180.29 5.8-202.38 17.26v74.98h548.69V165.24c-.94.68-1.89 1.36-2.86 2.04Z" fill="#1f0805"/>
        <path d="m113.97 54.22.63 20.29c-3.65-5.12-6.91-8.69-9.78-10.73-2.88-2.03-6.13-3.05-9.78-3.05-4.98 0-9.25 2.77-12.83 8.31-3.57 5.54-5.36 12.16-5.36 19.87s1.93 14.51 5.78 19.77c3.85 5.26 8.69 7.89 14.51 7.89 3.85 0 7.08-.84 9.67-2.52 2.59-1.68 5.54-4.8 8.83-9.36l-2.52 18.93c-4.63 2.03-8.24 3.36-10.83 4-2.59.63-5.96.95-10.09.95-11.64 0-21.07-3.54-28.29-10.62-7.22-7.08-10.83-16.33-10.83-27.76s3.93-21.03 11.78-28.39c7.85-7.36 18.02-11.04 30.49-11.04 3.79 0 6.78.21 8.99.63 2.21.42 5.42 1.37 9.62 2.84Z" fill="#ffffff"/>
        <path d="M119.33 88.81c0-11.5 3.56-20.7 10.67-27.6 7.11-6.9 16.6-10.36 28.44-10.36 7.5 0 14.04 1.49 19.61 4.47 5.57 2.98 10.13 7.62 13.67 13.93 3.54 6.31 5.31 13.11 5.31 20.4 0 8.9-2 16.33-5.99 22.29-3.3 5.05-7.99 9.08-14.09 12.09-6.1 3.02-12.58 4.52-19.45 4.52-11.43 0-20.65-3.64-27.65-10.94-7.01-7.29-10.52-16.89-10.52-28.81Zm26.29-25.13c-.7.63-1.38 2.03-2.05 4.21-.67 2.17-1 4.49-1 6.94l-.21 7.68c0 5.33.38 9.57 1.16 12.72.77 3.15 2.24 6.35 4.42 9.57 2.45 3.51 5.54 6.38 9.25 8.62 1.47.84 3.36 1.61 5.68 2.31 2.31.7 4.17 1.05 5.57 1.05.98 0 1.63-.12 1.95-.37.32-.24.65-.89 1-1.94 2.1-5.68 3.15-11.67 3.15-17.98 0-9.74-2.33-17.79-6.99-24.13s-10.53-9.52-17.61-9.52c-2.24 0-3.68.28-4.31.84Z" fill="#ffffff"/>
        <path d="M187.26 127.61c2.88-2.87 4.94-5.29 6.2-7.26 1.26-1.96 2.45-4.56 3.58-7.78l16.4-45.32c1.12-3.08 1.89-5.33 2.31-6.73.7-2.31 1.33-5.22 1.89-8.73h22.08c.63 3.44 1.17 6.15 1.63 8.15.46 2 1.1 4.43 1.95 7.31l12.83 42.9c1.05 3.44 2.17 6.33 3.37 8.67 1.19 2.35 3.08 5.28 5.68 8.78H234.9c.56-2.45.84-4.35.84-5.68 0-1.05-.04-1.86-.1-2.42-.07-.56-.28-1.47-.63-2.73l-2.1-8.31h-13.35l-1.58 5.57c-.7 2.59-1.05 4.94-1.05 7.04 0 .7.09 1.65.26 2.84s.33 2.42.47 3.68h-30.39ZM226.9 72.3l-5.57 22.71h10.62L226.9 72.3Z" fill="#ffffff"/>
        <path d="m315.86 54.54 1.16 19.35c-3.72-2.94-6.8-5.12-9.25-6.52-1.75-1.05-3.7-1.89-5.84-2.52s-4.15-.95-6.04-.95c-4.35 0-6.52 1.89-6.52 5.68 0 1.33.33 2.45 1 3.36.67.91 1.58 1.77 2.73 2.58 1.16.81 3.63 2.26 7.41 4.36 1.54.84 2.87 1.6 3.99 2.26 1.12.67 2.07 1.28 2.84 1.84 3.85 2.66 6.87 5.84 9.04 9.52 2.17 3.68 3.26 7.52 3.26 11.51 0 4.56-1.47 8.89-4.42 12.99s-6.7 6.89-11.25 8.36-9.96 2.21-16.19 2.21c-3.15 0-5.87-.21-8.15-.63-2.28-.42-5.24-1.26-8.89-2.52v-20.4c3.57 3.58 6.66 6.06 9.25 7.47 2.59 1.4 5.47 2.1 8.62 2.1 4.91 0 7.36-1.89 7.36-5.68 0-1.82-.72-3.49-2.16-4.99-1.44-1.51-4.01-3.38-7.73-5.63l-7.57-4.73c-3.79-2.66-6.73-5.82-8.83-9.46-2.1-3.64-3.15-7.5-3.15-11.57 0-6.45 2.87-11.67 8.62-15.67 5.75-4 13.25-5.99 22.5-5.99 3.37 0 6.24.25 8.62.74 2.38.49 5.57 1.47 9.57 2.94Z" fill="#ffffff"/>
        <path d="m323.11 71.15 5.26-19.35h58.04l-4.63 17.46c-3.23-1.89-5.77-3.14-7.62-3.73-1.86-.59-4.54-1.07-8.04-1.42v52.05c0 2.67.21 4.68.63 6.05.42 1.37 1.47 3.17 3.15 5.42h-30.28c1.61-2.17 2.63-3.89 3.05-5.15s.63-3.33.63-6.2V64.55c-4.84.42-8.36.98-10.57 1.68-2.21.7-5.42 2.35-9.62 4.94Z" fill="#ffffff"/>
        <path d="M379.37 127.61c2.88-2.87 4.94-5.29 6.2-7.26 1.26-1.96 2.45-4.56 3.57-7.78l16.4-45.32c1.12-3.08 1.89-5.33 2.31-6.73.7-2.31 1.33-5.22 1.89-8.73h22.08c.63 3.44 1.17 6.15 1.63 8.15.46 2 1.1 4.43 1.95 7.31l12.83 42.9c1.05 3.44 2.17 6.33 3.37 8.67 1.19 2.35 3.08 5.28 5.68 8.78H427c.56-2.45.84-4.35.84-5.68 0-1.05-.04-1.86-.1-2.42-.07-.56-.28-1.47-.63-2.73l-2.1-8.31h-13.35l-1.58 5.57c-.7 2.59-1.05 4.94-1.05 7.04 0 .7.09 1.65.26 2.84s.33 2.42.47 3.68h-30.39Zm39.64-55.31-5.57 22.71h10.62l-5.05-22.71Z" fill="#ffffff"/>
        <path d="M462.44 51.8h30.28c-1.4 2.59-2.35 4.63-2.84 6.1-.49 1.47-.74 3.09-.74 4.84v51c5.68 0 10.02-.53 13.04-1.58 1.05-.35 3.71-1.54 7.99-3.58l-5.99 19.03h-41.75c1.61-1.89 2.66-3.56 3.15-4.99.49-1.44.74-3.59.74-6.47V62.73c0-2.73-.21-4.71-.63-5.94-.42-1.23-1.51-2.89-3.26-4.99Z" fill="#ffffff"/>
        <path d="M428.46 235.18v22.49c0 .26 0 .53-.02.79-.06.69-.39 1.05-1.08 1.17-.18.03-.38.03-.56.03h-4.81c-1.38 0-1.69-.31-1.69-1.7v-37.71c0-.41.06-.83.18-1.22.2-.66.69-.9 1.37-.78.6.11 1.08.46 1.49.87 1.1 1.08 2.19 2.17 3.26 3.29 2.4 2.5 4.78 5.02 7.16 7.53 1.94 2.05 3.87 4.11 5.82 6.15 2.28 2.4 4.57 4.79 6.86 7.19.04.04.09.06.2.14.01-.2.04-.35.04-.51v-21.82c0-.36 0-.72.04-1.07.09-.74.37-1 1.11-1.12.06 0 .11-.03.17-.03 1.9.01 3.81 0 5.71.05.78.02 1.1.43 1.13 1.21.02.52 0 1.05 0 1.58v36.13c0 .49-.02.98-.13 1.45-.19.88-.87 1.25-1.71.89-.44-.19-.86-.48-1.21-.8a62.11 62.11 0 0 1-2.43-2.44c-2.99-3.13-5.96-6.28-8.95-9.41-3.44-3.61-6.89-7.22-10.33-10.83-.38-.4-.74-.8-1.11-1.2-.13-.13-.27-.25-.4-.38-.04.02-.08.04-.12.05Z" fill="#ffffff"/>
        <path d="M299 239.21v-18.6c0-.24 0-.49.03-.73.09-.57.39-.87.96-.95.32-.05.64-.08.96-.08h4.41c.24 0 .49.03.73.07.66.11.96.42 1.04 1.07.03.26.03.53.03.79v12.46c0 .34 0 .68.01 1.01.03.51.19.67.69.7h16.06c.99 0 1.1-.11 1.1-1.1v-13.13c0-.32.02-.64.08-.95.1-.49.41-.79.93-.84.37-.04.75-.08 1.13-.08h3.96c.34 0 .68.03 1.01.08.65.1.92.37 1.02 1.02.03.2.03.41.03.62v37.37c0 1.35-.35 1.71-1.7 1.72h-4.7c-.23 0-.45 0-.68-.04-.67-.09-.96-.38-1.05-1.05-.03-.24-.03-.49-.03-.73v-14.2c0-.99-.12-1.11-1.1-1.11h-16.18c-.38.04-.53.19-.58.57-.02.19-.02.38-.02.56v14.43c0 1.18-.4 1.57-1.62 1.57h-4.24c-.34 0-.68 0-1.02-.02-.89-.06-1.23-.42-1.28-1.32-.01-.21 0-.41 0-.62v-18.49Z" fill="#ffffff"/>
        <path d="M363.65 239.22v-18.6c0-.24 0-.49.03-.73.07-.55.34-.85.88-.96.27-.06.56-.09.84-.09h22.52c.3 0 .6.04.9.08.74.1 1.05.44 1.1 1.19.03.43.03.86.03 1.3 0 1.18 0 2.37-.01 3.55 0 .17 0 .34-.04.5-.1.52-.44.82-.95.91-.3.05-.6.07-.9.07h-15.11c-1.05 0-1.14.08-1.14 1.11v6.93c.02.7.13.82.84.82h13.19c.39 0 .79.04 1.18.1.48.07.77.37.88.84.05.24.08.48.08.73v4.11c0 .24-.02.49-.06.73-.08.56-.37.88-.92 1-.31.06-.64.09-.96.09-4.3 0-8.6 0-12.9-.01-.24 0-.49 0-.73.03-.41.05-.52.15-.56.56-.02.22-.02.45-.02.68v6.82c0 1 .09 1.1 1.09 1.1h14.99c.36 0 .72 0 1.07.06.63.1.92.41 1.03 1.03.03.17.04.34.04.5v4.28c0 .21-.02.41-.06.62-.12.64-.4.92-1.03 1.02-.28.05-.56.05-.85.05h-22.74c-1.35 0-1.7-.36-1.7-1.72v-18.71Z" fill="#ffffff"/>
        <path d="M498.38 218.17c5.25.04 9.4 1.28 13.15 3.79.52.35 1.01.73 1.49 1.12.64.53.76 1.03.33 1.73-.87 1.43-1.79 2.83-2.69 4.24-.07.11-.16.21-.25.3-.35.35-.68.42-1.12.18-.4-.22-.77-.47-1.15-.72-1.56-1.04-3.19-1.94-4.99-2.49-2.07-.63-4.17-.83-6.31-.4-.93.19-1.8.54-2.55 1.15-1.41 1.16-1.87 3.19-1.1 4.8.27.56.67.99 1.17 1.35 1.01.72 2.16 1.15 3.34 1.49 1.63.47 3.27.89 4.9 1.35 1.82.51 3.59 1.15 5.26 2.03 1.39.74 2.66 1.64 3.68 2.86 1.27 1.52 1.96 3.26 2.16 5.23.2 2.04 0 4.02-.73 5.93-1.17 3.06-3.4 5.14-6.34 6.49-2.72 1.25-5.6 1.72-8.58 1.72-3.8 0-7.39-.87-10.76-2.63-1.34-.7-2.58-1.56-3.74-2.52-.17-.14-.33-.31-.46-.49-.22-.29-.27-.62-.1-.96.13-.25.25-.51.4-.74.74-1.16 1.49-2.31 2.24-3.45.16-.25.35-.49.56-.7.36-.36.74-.39 1.18-.12.18.11.34.24.5.36 2.53 1.95 5.35 3.24 8.53 3.62 1.84.22 3.69.18 5.49-.4 1.12-.36 2.08-.94 2.79-1.91.92-1.25.91-3.72-.53-4.89a7.56 7.56 0 0 0-1.78-1.08c-1.63-.71-3.35-1.15-5.06-1.58-2.1-.54-4.19-1.12-6.16-2.03-1.5-.69-2.9-1.54-4.07-2.71-1.4-1.41-2.22-3.11-2.56-5.05-.41-2.38-.25-4.73.63-6.98 1.21-3.09 3.49-5.16 6.51-6.46 2.38-1.02 4.88-1.38 6.71-1.43Z" fill="#ffffff"/>
        <path d="M258.41 218.11c2.61.08 5.14.53 7.61 1.37 1.68.58 3.28 1.32 4.78 2.28.78.49 1.53 1.03 2.27 1.58.26.19.48.42.69.66.31.34.34.74.14 1.15-.1.2-.21.4-.34.58-.76 1.07-1.52 2.15-2.29 3.22-.16.23-.34.45-.54.65-.37.36-.73.42-1.18.17-.4-.21-.77-.47-1.14-.72-2.22-1.52-4.63-2.61-7.29-3.05-2.74-.45-5.46-.33-8.06.76-3.36 1.41-5.72 3.82-6.96 7.23-1.42 3.89-1.38 7.81.44 11.56 2.05 4.23 5.52 6.61 10.22 7.11 3.78.4 7.31-.39 10.55-2.4.64-.4 1.24-.85 1.85-1.3.99-.72 1.42-.66 2.13.35.79 1.12 1.56 2.26 2.34 3.39l.21.33c.3.5.25.97-.13 1.4-.17.2-.37.38-.57.54-3.16 2.57-6.77 4.21-10.77 4.96-2.67.5-5.35.53-8.05.09-3.52-.58-6.74-1.87-9.59-4.02-3.06-2.32-5.28-5.28-6.64-8.87a21.402 21.402 0 0 1-1.39-8.34c.12-4.09 1.25-7.88 3.51-11.32 1.56-2.38 3.58-4.3 5.98-5.83 2.51-1.6 5.25-2.63 8.19-3.1 1.34-.21 2.69-.29 4.04-.44Z" fill="#ffffff"/>
        <path d="M190.52 242.66v-15.05c0-1.06-.12-1.18-1.21-1.18h-8.43c-.47 0-.94-.01-1.41-.05-.8-.06-1.14-.42-1.18-1.22-.02-.36-.03-.71-.03-1.07v-3.55c0-.23 0-.45.04-.67.08-.54.37-.84.91-.93.33-.06.67-.09 1.01-.09h28.8c.32 0 .64.04.95.09.55.09.82.38.9.94.05.31.06.64.06.95 0 1.28.01 2.56 0 3.83 0 .26-.02.53-.07.78-.1.56-.41.85-.98.93-.32.04-.64.06-.96.06h-8.83c-.3 0-.6.02-.9.04-.26.02-.41.17-.45.42-.03.18-.05.37-.05.56 0 3.48.02 6.95.02 10.43v19.73c0 .32-.01.64-.05.96-.09.65-.41.97-1.05 1.06-.15.02-.3.02-.45.02h-4.87c-.32 0-.64-.05-.95-.11-.4-.09-.66-.35-.74-.76-.04-.22-.08-.44-.09-.67-.02-.71-.02-1.43-.03-2.14v-13.3h.01Z" fill="#ffffff"/>
        <path d="M89.64 238.82c.31.4.59.78.88 1.15l7.06 8.95c2.33 2.95 4.66 5.91 6.98 8.87.23.29.42.62.56.97.15.36 0 .63-.36.76-.26.09-.55.14-.83.14-2.19.01-4.37 0-6.56 0-.96 0-1.75-.34-2.35-1.13-1.35-1.78-2.73-3.55-4.09-5.33-2.69-3.51-5.37-7.02-8.05-10.53-.59-.78-1.2-1.55-1.79-2.32-.13-.16-.23-.34-.34-.52-.29-.48-.28-.97 0-1.44.16-.27.34-.54.54-.79 2.99-3.87 5.97-7.74 8.96-11.61 1.51-1.95 3.04-3.88 4.51-5.85.66-.89 1.5-1.28 2.56-1.28 1.96-.01 3.92 0 5.88 0 .28 0 .57.04.84.1.56.12.73.49.49 1.01-.09.18-.21.36-.34.52-3.72 4.68-7.45 9.36-11.18 14.03-1.08 1.35-2.15 2.71-3.22 4.07-.05.06-.08.12-.15.24Z" fill="#ffffff"/>
        <path d="M79.27 239.3v18.2c0 .32 0 .64-.02.96-.05.67-.37 1.03-1.03 1.15-.22.04-.45.04-.68.04h-4.36c-1.89 0-2.08-.19-2.08-2.05v-36.96c0-.24 0-.49.02-.73.07-.58.34-.88.92-.98.33-.06.67-.09 1.01-.09h4.47c.22 0 .45.02.67.07.69.13.97.44 1.05 1.13.03.22.02.45.02.68v18.59Z" fill="#ffffff"/>
        <path d="M135.8 239.22v-18.66c0-1.34.25-1.66 1.59-1.7 1.7-.05 3.39-.02 5.09-.02.13 0 .26.03.39.06.72.13 1 .44 1.08 1.17.02.19.01.38.01.56V258c0 1.26-.39 1.65-1.66 1.65h-4.64c-.3 0-.61 0-.9-.06-.56-.1-.86-.41-.94-.98-.03-.24-.03-.49-.03-.73v-18.66Z" fill="#ffffff"/>
        <path d="M584.31 293.59H0V0h584.31v293.59ZM6 287.59h572.31V6H6v281.59Z" fill="#000000"/>
    </g>
</svg>
